<svg xmlns="http://www.w3.org/2000/svg" shape-rendering="geometricPrecision" text-rendering="geometricPrecision" image-rendering="optimizeQuality" fill-rule="evenodd" clip-rule="evenodd" viewBox="0 0 512 323.3"><path d="m360.31 234.26 110.02-52.3c9.95-4.73 14.86-17.06 9.49-26.67l-1.87-3.33 9.64-4.58c10.64-5.06 18.26-14.01 21.93-24.34 3.65-10.29 3.41-21.99-1.64-32.6l-26.15-55.01c-5.06-10.65-14.01-18.26-24.33-21.93-10.3-3.66-22-3.41-32.6 1.63l-18.08 8.59-.4.2c-5.55-9.03-16.53-13.22-26.18-8.64L288 59.08c-9.94 4.72-13.54 16.43-9.48 26.66l24.75 62.42-51.03-18.6c-3.58-1.3-2.79-.82-4.37-4.32l-12.73-28.13c-3.11-6.86-3.29-10.4-9.75-14.48-3.66-2.31-7.61-3.88-12.22-3.88l-31.82 93.17c3.03 1.84 6.28 3.25 10.01 3.66 6.41.69 9.98-2.13 15.59-4.86 10.7-5.21 21.41-10.42 32.11-15.62 1.5-.73 1.11-.85 2.54-.08l82.03 44.5 10.02 25.25c4.06 10.23 16.72 14.21 26.66 9.49zM15.05 314.97c-3.66.15-6.32 5.32-5.04 8.33h137.67c-3-7.88-10.97-11.4-14.68-11.62-1.79-18.41-19.81-25.01-33.11-17.93 4.92-13.61-5.25-16.66-12.78-14.78-2.49-10.63-4.41-23.62-1.35-32.97l.06-.32 50.49-19.9-46.37 26.6c7.7 7.42 16.71 11.32 26.91 11.99 21.06 1.39 40.48-7.98 53.47-24.27 2.47-3.09 4.6-6.53 6.48-10.12 2.28-4.37 10.45-19.05 9.27-22.56-1.72-5.12-25.76-8.65-31.26-9.4-28.57-3.92-63.5.82-71.25 34.42-.38 1.64-.46 3.31-.33 5l-1.61 1.04-1.52-1.11c.29-1.17.44-2.36.41-3.56-.71-28.98-28.66-38.78-52.84-40.37-4.66-.32-25.04-1.47-27.33 2.46-1.56 2.69 2.68 16.15 3.82 20.13.95 3.28 2.12 6.47 3.63 9.43 7.94 15.6 22.35 26.6 39.92 29.01 8.52 1.17 16.59-.52 24.18-5.32l-33.68-29.74 36.37 23.72-.01.26c2.75 9.59 2.45 23.28.03 35.12-3.47 1.58-6.32 4.34-6.5 8.01-17.77-11.99-34.64-2.04-32.88 14.9-5.99-3.43-20.62-1.37-20.17 13.55zm87.71-155.31c-4.95 4.95 1.29 11.39 6.28 7.65 2.47-1.99 4.88-3.73 7.51-5.52 5.33-3.21.2-11.67-5.18-8.44-2.93 1.82-5.92 4.14-8.61 6.31zm26.95-15.68c-6.29 2.52-2.33 11.59 3.49 9.26 2.93-1.04 5.78-1.98 8.83-2.68 6.07-1.22 4.45-10.99-2.22-9.66-3.53 1.03-6.57 1.83-10.1 3.08zm31.19-4.85c-7.32 0-6.38 9.87-.64 9.87 2.97.23 6.05.63 8.95 1.36 6.82 1.36 8.25-8.44 2.28-9.64-3.45-.8-7.05-1.37-10.59-1.59zm-66.85-4.29c-1.53 1.53-1.49 4.15-.43 5.93 2.11 2.81 5.39 3.07 7.9.57l1.5-1.65c4.49-4.49-2.65-11.35-7.17-6.83l-1.8 1.98zm18.32-15.06c-5.61 3.37-.49 11.85 5.09 8.5 2.65-1.62 5.43-3.02 8.25-4.33 5.53-2.21 2.19-11.53-3.73-9.16-3.09 1.27-6.75 3.24-9.61 4.99zm29.12-11.33c-6.19 1.24-4.7 10.82 1.91 9.71 3.15-.61 6.07-1.03 9.25-1.32 5.55 0 6.72-9.86-.79-9.86-3.49.25-6.93.81-10.37 1.47zm31.59-.09c-6.83-1.36-8.26 8.44-2.28 9.63 2.88.65 5.83 1.58 8.54 2.79 6.44 2.58 9.66-6.8 3.98-9.07a59.236 59.236 0 0 0-10.24-3.35zm-76.59-11c-4.87 4.86 2.43 11.55 6.78 7.2 2.12-2.06 4.64-4.07 7.08-5.76 1.78-1.07 2.65-3.78 1.83-5.83-1.24-3.1-4.55-4.06-7.46-2.32-2.88 2.03-5.7 4.25-8.23 6.71zm26.97-16.28c-6.47 2.59-2.3 11.59 3.35 9.32 2.9-1.06 5.87-1.87 8.88-2.59 6.03-1.2 4.69-10.8-2.03-9.69-3.28.62-7.02 1.87-10.2 2.96zm30.88-5.19c-6.7 0-6.49 9.9-.14 9.9 3 0 6.34.2 9.3.63 5.64 1.13 8.45-8.38 1.28-9.82-3.31-.49-7.08-.71-10.44-.71zm30.81 6.18c-6.33-2.53-9.68 6.78-3.89 9.1 2.72 1.08 5.58 2.67 8.06 4.22 5.84 3.51 10.64-5.16 5.29-8.37-2.99-1.83-6.21-3.65-9.46-4.95zM380.09 6.89c-6.33-6.11-14.73-9.01-22.9-5.13l-66.89 31.8c-8.18 3.89-11.61 12.37-10.68 21.09L380.09 6.89zm86.3 124.4-48.46-86.65 16.99-8.07c4.72-2.24 9.97-2.34 14.59-.7 4.59 1.62 8.56 4.99 10.78 9.68l26.15 55.01c2.25 4.73 2.35 9.97.71 14.6-1.63 4.58-5 8.55-9.68 10.78l-9.83 4.67c-.43.2-.85.43-1.25.68z"/></svg>